<svg xmlns="http://www.w3.org/2000/svg" width="44" height="44" fill="none"><circle cx="22" cy="22" r="20" style="mix-blend-mode:normal" fill="#2E64FA"/><path fill-rule="evenodd" fill="#898989" style="mix-blend-mode:normal" d="M22 44c12.15 0 22-9.85 22-22S34.15 0 22 0 0 9.85 0 22s9.85 22 22 22zm0-2c11.046 0 20-8.954 20-20S33.046 2 22 2 2 10.954 2 22s8.954 20 20 20z"/><path style="mix-blend-mode:normal" fill="#FFF" d="M22 25.442l8.146-4.073a.705.705 0 01.63 1.261l-8.46 4.23a.705.705 0 01-.631 0l-8.461-4.23a.705.705 0 01.63-1.26L22 25.441z"/><path style="mix-blend-mode:normal" fill="#FFF" d="M22 29.672l8.146-4.072a.705.705 0 01.63 1.26l-8.46 4.23a.705.705 0 01-.631 0l-8.461-4.23a.705.705 0 01.63-1.26L22 29.672zM13.224 18.4a.706.706 0 010-1.262l8.46-4.23a.705.705 0 01.631 0l8.461 4.23a.705.705 0 010 1.262l-8.46 4.23a.705.705 0 01-.631 0l-8.461-4.23zM22 21.211l6.884-3.442L22 14.327l-6.884 3.442L22 21.211z"/></svg>
