<svg xmlns="http://www.w3.org/2000/svg" width="33.87" height="31.35"><g stroke-linecap="round" stroke-linejoin="round" stroke-width=".25"><path d="M32.085.125l-13.14 9.72 2.45-5.73z" fill="#e17726" stroke="#e17726"/><path d="M1.785.125l13.02 9.8-2.33-5.8zm25.57 22.53l-3.5 5.34 7.49 2.06 2.14-7.28-6.13-.12zm-26.96.12l2.13 7.28 7.47-2.06-3.48-5.34-6.12.12z" fill="#e27625" stroke="#e27625"/><path d="M9.595 13.635l-2.08 3.14 7.4.34-.24-7.97-5.08 4.5zm14.68.01l-5.16-4.6-.17 8.07 7.4-.34-2.07-3.13zm-14.28 14.35l4.49-2.16-3.86-3zm9.4-2.17l4.46 2.17-.6-5.17-3.86 3z" fill="#e27625" stroke="#e27625"/><path d="M23.855 27.995l-4.46-2.16.36 2.9-.04 1.23zm-13.86 0l4.16 1.97-.03-1.23.36-2.9z" fill="#d5bfb2" stroke="#d5bfb2"/><path d="M14.225 20.905l-3.7-1.08 2.62-1.2 1.09 2.28zm5.41 0l1.1-2.29 2.63 1.2-3.73 1.1z" fill="#233447" stroke="#233447"/><path d="M9.995 27.995l.65-5.34-4.13.12 3.48 5.22zm13.23-5.34l.63 5.34 3.5-5.22zm3.13-5.88l-7.4.34.68 3.8 1.1-2.3 2.63 1.2 2.99-3.04zm-15.83 3.05l2.62-1.2 1.09 2.28.69-3.8-7.4-.33z" fill="#cc6228" stroke="#cc6228"/><path d="M7.525 16.775l3.1 6.05-.1-3-3-3.05zm15.84 3.05l-.12 3 3.1-6.05-2.98 3.05zm-8.44-2.71l-.7 3.8.88 4.48.2-5.91zm4.02 0l-.36 2.36.18 5.92.87-4.49-.69-3.8z" fill="#e27525" stroke="#e27525"/><path d="M19.635 20.905l-.87 4.49.63.44 3.85-3 .12-3.01zm-9.11-1.08l.1 3 3.86 3 .62-.43-.87-4.49-3.72-1.08z" fill="#f5841f" stroke="#f5841f"/><path d="M19.725 29.965l.03-1.23-.34-.28h-4.96l-.33.28.03 1.23-4.16-1.97 1.46 1.2 2.95 2.03h5.05l2.96-2.04 1.44-1.19-4.14 1.97z" fill="#c0ac9d" stroke="#c0ac9d"/><path d="M19.395 25.825l-.63-.43h-3.66l-.62.44-.36 2.9.33-.28h4.96l.34.28-.36-2.9z" fill="#161616" stroke="#161616"/><path d="M32.645 10.475l1.1-5.35-1.66-5-12.7 9.4 4.89 4.11 6.9 2.01 1.52-1.77-.66-.48 1.05-.96-.8-.62 1.05-.8-.7-.54zM.125 5.115l1.12 5.36-.72.53 1.07.8-.8.63 1.04.96-.66.48 1.52 1.77 6.9-2 4.89-4.13-12.7-9.39z" fill="#763e1a" stroke="#763e1a"/><path d="M31.175 15.645l-6.9-2 2.08 3.13-3.1 6.05 4.1-.05h6.13zm-21.58-2.01l-6.9 2.01-2.3 7.13h6.13l4.1.05-3.1-6.05 2.08-3.14zm9.35 3.48l.45-7.6 2-5.4h-8.92l2 5.4.45 7.6.17 2.38v5.9h3.67l.02-5.9.16-2.38z" fill="#f5841f" stroke="#f5841f"/></g></svg>