<svg width="120" height="120" fill="none" xmlns="http://www.w3.org/2000/svg"><path fill="url(#prefix__paint0_linear_62_329)" d="M0 0h120v120H0z"/><path d="M20 38h6c30.928 0 56 25.072 56 56v6h12a6 6 0 006-6c0-40.87-33.13-74-74-74a6 6 0 00-6 6v12z" fill="url(#prefix__paint1_radial_62_329)"/><path d="M84 94h16a6 6 0 01-6 6H84v-6z" fill="url(#prefix__paint2_linear_62_329)"/><path d="M26 20v16h-6V26a6 6 0 016-6z" fill="url(#prefix__paint3_linear_62_329)"/><path d="M20 36h6c32.032 0 58 25.968 58 58v6H66v-6c0-22.091-17.909-40-40-40h-6V36z" fill="url(#prefix__paint4_radial_62_329)"/><path d="M68 94h16v6H68v-6z" fill="url(#prefix__paint5_linear_62_329)"/><path d="M20 52V36h6v16h-6z" fill="url(#prefix__paint6_linear_62_329)"/><path d="M20 62a6 6 0 006 6c14.36 0 26 11.64 26 26a6 6 0 006 6h10v-6c0-23.196-18.804-42-42-42h-6v10z" fill="url(#prefix__paint7_radial_62_329)"/><path d="M52 94h16v6H58a6 6 0 01-6-6z" fill="url(#prefix__paint8_radial_62_329)"/><path d="M26 68a6 6 0 01-6-6V52h6v16z" fill="url(#prefix__paint9_radial_62_329)"/><defs><radialGradient id="prefix__paint1_radial_62_329" cx="0" cy="0" r="1" gradientUnits="userSpaceOnUse" gradientTransform="matrix(0 -74 74 0 26 94)"><stop offset=".77" stop-color="#FF4000"/><stop offset="1" stop-color="#8754C9"/></radialGradient><radialGradient id="prefix__paint4_radial_62_329" cx="0" cy="0" r="1" gradientUnits="userSpaceOnUse" gradientTransform="matrix(0 -58 58 0 26 94)"><stop offset=".724" stop-color="#FFF700"/><stop offset="1" stop-color="#FF9901"/></radialGradient><radialGradient id="prefix__paint7_radial_62_329" cx="0" cy="0" r="1" gradientUnits="userSpaceOnUse" gradientTransform="matrix(0 -42 42 0 26 94)"><stop offset=".595" stop-color="#0AF"/><stop offset="1" stop-color="#01DA40"/></radialGradient><radialGradient id="prefix__paint8_radial_62_329" cx="0" cy="0" r="1" gradientUnits="userSpaceOnUse" gradientTransform="matrix(17 0 0 45.3333 51 97)"><stop stop-color="#0AF"/><stop offset="1" stop-color="#01DA40"/></radialGradient><radialGradient id="prefix__paint9_radial_62_329" cx="0" cy="0" r="1" gradientUnits="userSpaceOnUse" gradientTransform="matrix(0 -17 322.37 0 23 69)"><stop stop-color="#0AF"/><stop offset="1" stop-color="#01DA40"/></radialGradient><linearGradient id="prefix__paint0_linear_62_329" x1="60" y1="0" x2="60" y2="120" gradientUnits="userSpaceOnUse"><stop stop-color="#174299"/><stop offset="1" stop-color="#001E59"/></linearGradient><linearGradient id="prefix__paint2_linear_62_329" x1="83" y1="97" x2="100" y2="97" gradientUnits="userSpaceOnUse"><stop stop-color="#FF4000"/><stop offset="1" stop-color="#8754C9"/></linearGradient><linearGradient id="prefix__paint3_linear_62_329" x1="23" y1="20" x2="23" y2="37" gradientUnits="userSpaceOnUse"><stop stop-color="#8754C9"/><stop offset="1" stop-color="#FF4000"/></linearGradient><linearGradient id="prefix__paint5_linear_62_329" x1="68" y1="97" x2="84" y2="97" gradientUnits="userSpaceOnUse"><stop stop-color="#FFF700"/><stop offset="1" stop-color="#FF9901"/></linearGradient><linearGradient id="prefix__paint6_linear_62_329" x1="23" y1="52" x2="23" y2="36" gradientUnits="userSpaceOnUse"><stop stop-color="#FFF700"/><stop offset="1" stop-color="#FF9901"/></linearGradient></defs></svg>